<?xml version="1.0" encoding="UTF-8"?>
<svg id="Calque_2" data-name="Calque 2" xmlns="http://www.w3.org/2000/svg" viewBox="0 0 83.11 46.51">
  <defs>
    <style>
      .cls-1 {
        fill: #f19327;
      }

      .cls-2 {
        fill: #fcda1b;
      }

      .cls-3 {
        fill: #af1923;
      }

      .cls-4 {
        fill: #5b632c;
      }
    </style>
  </defs>
  <g id="Calque_1-2" data-name="Calque 1">
    <g>
      <path class="cls-4" d="m32.98,29.8s2.11-2.16,2.01-4.52l-.13-.19s-.8.53-1.36.42l-.33.22s-.28-.25-.75.17c0,0-.4-.72-.85-.5l.3-.33s-.18-.67-1.58-1.44c0,0-.28-.33-.65-1.33l-.55-.39s-.08-.58-.15-1.19c0,0-.3-.44-.63-.47,0,0-.05-.25-.08-.78,0,0-.28-.03-.68-1,0,0-.48-.91-.6-1l-.2-.42.1-.17s.45.83.78.97c0,0,.43-.58-.03-1.58,0,0-.48.25-1.13-.11,0,0-.63.14-.9.36,0,0-.23-.25-.7-.08,0,0,.15-.39-1.23-.3l.4-.11-.83-.17s.1-.08.03-.25c-.08-.17-1.01-.25-1.33.5,0,0,.35.39-.2.61,0,0-.7-.5-1.26-.44,0,0-.28-.28-.28-.55,0,0-.45-.28-.9-.11,0,0-.28-.5-.68-.33,0,0-.55-.33.13-.72,0,0,.13-.39-.25-.61,0,0,.23-.03.25-.39,0,0-.48-.25-.88.14,0,0-.4-.3-1.11.03,0,0-1.08-.47-2.01.17h-.45s-.83.64-1.61-.25c0,0-.33.11-.55.67,0,0-.65.5-1.16.64,0,0-.45.5-.4,1.11,0,0-.5.67-1.31.83,0,0-.38.28-.48.69,0,0-.48,0-.75.86,0,0-.88.78-1.11,1.5,0,0,.58,1.22-.65,3.1l.3.58-.23.67s1.03.39,1.38,2.41c0,0,.88.69,1.99,1.55,0,0,2.04-.67,2.69-.06,0,0,2.86-1.69,3.22.14,0,0-.03.3,1.31-.06,0,0,.85.58.25,1.52,0,0,.13.53-.2,1,0,0,.13.44.13.53,0,0,1.81,1.89,1.78,3.13l-.18.17s.5,1.03.33,1.5c-.18.47-.7.14-.73,2.61,0,0,1.16,1.8,1.16,2.41,0,0-.18,1.52.73,2.47,0,0,.5,1.03.5,1.22,0,0,.45.3.1.72,0,0,.08.8.75.86,0,0,.8-.47,1.76-.22.95.25,2.04-1,2.54-1.91l.6-.5s.5-.72.2-1.19c0,0,.13-.39.48-.44,0,0,1.18,0,.7-1.91,0,0-.45-.33.58-.83,0,0,.33-.22.43-.53,0,0,1.41-.33,1.56-1.28,0,0-.03-1.22-.03-1.58,0,0,.4-.3-.25-.61,0,0,.05-.44-.25-.75,0,0,.5-.61-.08-.97,0,0,.2-1.33,1.38-2.3,0,0,.78-1.36,1.83-1.58Zm.84,7.02s-.6,1.23-1.73,1.48c0,0-.45.05-.49.61,0,0,.28.97-.19,1.5,0,0-.41.43-.19,1.29,0,0-.16.46.08.77,0,0,.29.2.31.3,0,0,.57-.36.84-.3,0,0,.68-1.64,1.17-3.02,0,0,.37-.66.44-1.39l.11.29s.49-.61-.11-1.68c0,0-.21-.05-.23.16Z"/>
      <path class="cls-4" d="m29.74,9.15c0-.08-.03-.17-.06-.25-1.23-3-3.08-5.48-5.99-7.06C21.49.64,19.14.04,16.64,0c-.68-.01-1.34,0-2.01.19-.77.22-1.59.27-2.36.49-3.57.99-6.46,2.99-8.62,5.98C1.18,10.09.34,13.91,1.12,18.07c.07.35.26.67.4,1.01l.13-.04c0-.18.01-.36,0-.54-.03-.4-.09-.8-.11-1.2-.09-1.98.38-3.85,1.17-5.65.65-1.48,1.52-2.82,2.6-4.01,2.3-2.56,5.16-4.19,8.51-4.97,2.7-.63,5.36-.53,7.99.31,1.5.48,2.88,1.21,4.13,2.16,1.33,1.02,2.46,2.2,3.23,3.7,0,0,0,.01,0,.02,0,0,0,0,0-.01,0,0,0,0,0,.01.02.04.04.08.05.13.14.27.39.48.52.76.01,0,.02,0,.03.01-.04-.19-.06-.39-.05-.6Z"/>
      <path class="cls-1" d="m31.25,13.16c0-.08-.03-.17-.06-.25-1.14-3-2.86-5.48-5.57-7.06-2.05-1.19-4.24-1.79-6.56-1.83-.63-.01-1.25,0-1.87.19-.72.22-1.48.27-2.2.49-3.32.99-6.01,2.99-8.02,5.98-2.3,3.42-3.08,7.24-2.35,11.4.06.35.24.67.37,1.01l.12-.04c0-.18.01-.36,0-.54-.03-.4-.09-.8-.1-1.2-.08-1.98.36-3.85,1.09-5.65.6-1.48,1.42-2.82,2.42-4.01,2.14-2.56,4.8-4.19,7.92-4.97,2.51-.63,4.99-.53,7.43.31,1.4.48,2.68,1.21,3.85,2.16,1.24,1.02,2.28,2.2,3.01,3.7,0,0,0,.01,0,.02,0,0,0,0,0-.01,0,0,0,0,0,.01.02.04.04.08.05.13.13.27.36.48.49.76.01,0,.02,0,.03.01-.04-.19-.05-.39-.04-.6Z"/>
      <path class="cls-3" d="m1.42,27.3c0,.08.03.18.06.26,1.15,3.05,2.93,5.59,5.81,7.26,2.17,1.26,4.52,1.93,7.03,2.04.68.03,1.35.04,2.03-.14.78-.2,1.6-.23,2.39-.42,3.61-.89,6.57-2.82,8.82-5.76,2.57-3.37,3.53-7.18,2.86-11.38-.06-.35-.24-.68-.37-1.03l-.13.03c0,.18-.02.36-.01.54.02.4.07.81.08,1.21.03,1.99-.49,3.85-1.34,5.64-.69,1.47-1.61,2.78-2.73,3.95-2.39,2.5-5.3,4.06-8.69,4.75-2.72.55-5.4.37-8.01-.54-1.49-.52-2.86-1.29-4.09-2.29-1.3-1.06-2.4-2.28-3.14-3.81,0,0,0-.01,0-.02,0,0,0,0,0,.01,0,0,0,0,0-.01-.02-.04-.04-.08-.05-.13-.13-.27-.38-.5-.5-.77-.01,0-.02-.01-.03-.02.03.19.05.4.03.61Z"/>
      <path class="cls-2" d="m.03,23.24c0,.08.02.18.05.26,1.06,3.05,2.72,5.58,5.39,7.25,2.02,1.26,4.2,1.92,6.54,2.03.63.03,1.26.03,1.89-.14.73-.2,1.49-.23,2.22-.43,3.36-.9,6.12-2.83,8.22-5.78,2.4-3.37,3.3-7.19,2.68-11.38-.05-.35-.22-.68-.34-1.02l-.12.03c0,.18-.02.36-.01.54.02.4.07.81.07,1.21.02,1.99-.47,3.85-1.26,5.64-.65,1.47-1.5,2.79-2.54,3.96-2.22,2.51-4.94,4.07-8.09,4.77-2.54.56-5.02.39-7.45-.52-1.39-.52-2.66-1.29-3.8-2.28-1.21-1.05-2.23-2.28-2.91-3.8,0,0,0-.01,0-.02,0,0,0,0,0,.01,0,0,0,0,0-.01-.02-.04-.03-.08-.05-.13-.12-.27-.35-.5-.47-.77-.01,0-.02-.01-.03-.02.03.19.04.4.03.61Z"/>
      <g>
        <path class="cls-3" d="m43.11,33.73h3.25l.65,1.81h1.58l-3.09-8.53h-1.53l-3.1,8.53h1.58l.65-1.81Zm.46-1.29l1.17-3.27,1.17,3.27h-2.34Z"/>
        <path class="cls-3" d="m52.98,35.61c2.23,0,4-1.62,4.21-3.84v-1.05s-4.81,0-4.81,0v1.29h3.22c-.23,1.37-1.22,2.21-2.62,2.21-1.67,0-2.79-1.2-2.79-2.98s1.12-2.99,2.79-2.99c1.06,0,1.87.49,2.28,1.37l.06.12h1.72l-.11-.29c-.63-1.62-2.11-2.59-3.95-2.59-2.45,0-4.31,1.88-4.31,4.38s1.85,4.36,4.31,4.36Z"/>
        <rect class="cls-3" x="57.87" y="26.96" width="1.49" height="8.58"/>
        <rect class="cls-3" x="41.87" y="37.86" width="1.49" height="8.58"/>
        <path class="cls-3" d="m46.94,37.91l-3.1,8.53h1.58l.65-1.81h3.25l.65,1.81h1.58l-3.09-8.53h-1.53Zm1.93,5.42h-2.34l1.17-3.27,1.17,3.27Z"/>
        <path class="cls-3" d="m55.34,41.61v1.29h3.22c-.23,1.37-1.22,2.21-2.62,2.21-1.67,0-2.79-1.2-2.79-2.98s1.12-2.99,2.79-2.99c1.06,0,1.87.49,2.28,1.37l.06.12h1.72l-.11-.29c-.63-1.62-2.11-2.59-3.95-2.59-2.45,0-4.31,1.88-4.31,4.38s1.85,4.36,4.31,4.36c2.23,0,4-1.62,4.21-3.84v-1.05s-4.81,0-4.81,0Z"/>
      </g>
      <g>
        <path class="cls-3" d="m62.99,28.53h-.85l-.16.41h-.27l.71-1.85h.29l.7,1.85h-.27l-.16-.41Zm-.43-1.14l-.35.94h.71l-.35-.94Z"/>
        <path class="cls-3" d="m63.7,27.68h-.2v-.2h.2v-.1c0-.33.17-.47.56-.47v.2c-.23,0-.31.08-.31.27v.1h.32v.2h-.32v1.26h-.26v-1.26Z"/>
        <path class="cls-3" d="m64.76,28.95h-.26v-1.46h.26v.24c.09-.16.25-.26.5-.26v.25h-.07c-.24,0-.43.1-.43.44v.8Z"/>
        <path class="cls-3" d="m65.44,27.08c0-.09.08-.17.17-.17.09,0,.17.07.17.17s-.08.17-.17.17c-.1,0-.17-.07-.17-.17Zm.04.4h.26v1.46h-.26v-1.46Z"/>
        <path class="cls-3" d="m66.76,27.46c.38,0,.63.19.71.49h-.27c-.05-.18-.21-.29-.43-.29-.28,0-.49.19-.49.55s.21.55.49.55c.23,0,.38-.1.43-.29h.27c-.08.29-.33.49-.71.49-.44,0-.75-.29-.75-.76s.31-.75.75-.75Z"/>
        <path class="cls-3" d="m68.37,27.46c.29,0,.48.14.57.29v-.27h.26v1.46h-.26v-.27c-.09.16-.29.3-.57.3-.41,0-.73-.31-.73-.76s.32-.75.73-.75Zm.05.21c-.28,0-.52.19-.52.54s.24.55.52.55.52-.2.52-.54-.24-.54-.52-.54Z"/>
        <path class="cls-3" d="m63.62,30.83h-.31c-.11-.22-.32-.34-.59-.34-.41,0-.72.28-.72.73s.31.73.72.73c.38,0,.65-.23.69-.6h-.78v-.2h1.05v.19c-.04.46-.43.83-.96.83s-.98-.39-.98-.95.43-.95.98-.95c.41,0,.75.2.9.56Z"/>
        <path class="cls-3" d="m64.62,32.17c-.43,0-.77-.29-.77-.76s.34-.75.78-.75.78.29.78.75-.35.76-.79.76Zm0-.21c.27,0,.53-.17.53-.54s-.26-.54-.52-.54-.51.17-.51.54.24.54.5.54Z"/>
        <path class="cls-3" d="m65.77,30.69l.48,1.24.48-1.24h.27l-.6,1.46h-.3l-.6-1.46h.27Z"/>
        <path class="cls-3" d="m67.84,32.17c-.44,0-.76-.29-.76-.76s.31-.75.76-.75.74.3.74.7c0,.05,0,.1,0,.15h-1.23c.02.3.24.46.5.46.23,0,.38-.11.43-.27h.27c-.08.27-.33.48-.71.48Zm-.5-.86h.97c0-.29-.22-.44-.49-.44-.25,0-.46.16-.49.44Z"/>
        <path class="cls-3" d="m69.1,32.15h-.26v-1.46h.26v.24c.09-.16.25-.26.5-.26v.25h-.07c-.24,0-.43.1-.43.44v.8Z"/>
        <path class="cls-3" d="m70.95,31.32c0-.3-.17-.45-.43-.45s-.44.15-.44.47v.81h-.26v-1.46h.26v.21c.1-.15.29-.23.49-.23.36,0,.63.21.63.63v.86h-.25v-.83Z"/>
        <path class="cls-3" d="m72.18,30.66c.29,0,.48.14.57.29v-.27h.26v1.46h-.26v-.27c-.09.16-.29.3-.57.3-.41,0-.73-.31-.73-.76s.32-.75.73-.75Zm.05.21c-.28,0-.52.19-.52.54s.24.55.52.55.52-.2.52-.54-.24-.54-.52-.54Z"/>
        <path class="cls-3" d="m74.5,31.32c0-.3-.17-.45-.43-.45s-.44.15-.44.47v.81h-.26v-1.46h.26v.21c.1-.15.29-.23.49-.23.36,0,.63.21.63.63v.86h-.25v-.83Z"/>
        <path class="cls-3" d="m75.75,30.66c.38,0,.63.19.71.49h-.27c-.05-.18-.21-.29-.43-.29-.28,0-.49.19-.49.55s.21.55.49.55c.23,0,.38-.1.43-.29h.27c-.08.29-.33.49-.71.49-.44,0-.75-.29-.75-.76s.31-.75.75-.75Z"/>
        <path class="cls-3" d="m77.4,32.17c-.44,0-.76-.29-.76-.76s.31-.75.76-.75.74.3.74.7c0,.05,0,.1,0,.15h-1.23c.02.3.24.46.5.46.23,0,.38-.11.43-.27h.27c-.08.27-.33.48-.71.48Zm-.5-.86h.97c0-.29-.22-.44-.49-.44-.25,0-.46.16-.49.44Z"/>
        <path class="cls-3" d="m61.84,33.49h.26v1.86h-.26v-1.86Z"/>
        <path class="cls-3" d="m63.58,34.53c0-.3-.17-.45-.43-.45s-.44.15-.44.47v.81h-.26v-1.46h.26v.21c.1-.15.29-.23.49-.23.36,0,.63.21.63.63v.86h-.25v-.83Z"/>
        <path class="cls-3" d="m64.73,35.38c-.36,0-.61-.19-.63-.45h.26c.01.14.15.25.36.25.2,0,.31-.1.31-.22,0-.33-.91-.14-.91-.68,0-.22.22-.41.56-.41s.56.17.58.46h-.26c-.01-.15-.13-.25-.33-.25-.19,0-.3.09-.3.2,0,.35.89.16.9.68,0,.24-.22.42-.56.42Z"/>
        <path class="cls-3" d="m65.63,34.09h-.2v-.2h.2v-.37h.26v.37h.4v.2h-.4v.86c0,.14.06.19.21.19h.19v.21h-.23c-.27,0-.43-.11-.43-.4v-.86Z"/>
        <path class="cls-3" d="m66.48,33.49c0-.09.08-.17.17-.17.09,0,.17.07.17.17s-.08.17-.17.17c-.1,0-.17-.07-.17-.17Zm.04.4h.26v1.46h-.26v-1.46Z"/>
        <path class="cls-3" d="m67.2,34.09h-.2v-.2h.2v-.37h.26v.37h.4v.2h-.4v.86c0,.14.06.19.21.19h.19v.21h-.23c-.27,0-.43-.11-.43-.4v-.86Z"/>
        <path class="cls-3" d="m69.46,35.35h-.26v-.22c-.1.15-.29.24-.49.24-.35,0-.63-.21-.63-.63v-.86h.25v.82c0,.3.17.45.43.45s.44-.15.44-.47v-.8h.26v1.46Z"/>
        <path class="cls-3" d="m69.88,34.09h-.2v-.2h.2v-.37h.26v.37h.4v.2h-.4v.86c0,.14.06.19.21.19h.19v.21h-.23c-.27,0-.43-.11-.43-.4v-.86Z"/>
        <path class="cls-3" d="m71.44,35.38c-.44,0-.76-.29-.76-.76s.31-.75.76-.75.74.3.74.7c0,.05,0,.1,0,.15h-1.23c.02.3.24.46.5.46.23,0,.38-.11.43-.27h.27c-.08.27-.33.48-.71.48Zm-.5-.86h.97c0-.29-.22-.44-.49-.44-.25,0-.46.16-.49.44Z"/>
      </g>
      <g>
        <path class="cls-3" d="m61.96,37.63h.26v1.97h-.26v-1.97Z"/>
        <path class="cls-3" d="m63.7,38.72c0-.32-.17-.48-.43-.48s-.44.16-.44.5v.85h-.26v-1.55h.26v.22c.1-.16.29-.25.49-.25.36,0,.63.22.63.66v.91h-.25v-.87Z"/>
        <path class="cls-3" d="m64.85,39.62c-.36,0-.61-.2-.63-.48h.26c.01.15.15.26.36.26.2,0,.31-.1.31-.23,0-.34-.91-.14-.91-.72,0-.24.22-.43.56-.43s.56.18.58.49h-.26c-.01-.16-.13-.27-.33-.27-.19,0-.3.09-.3.21,0,.37.89.17.9.72,0,.25-.22.45-.56.45Z"/>
        <path class="cls-3" d="m65.75,38.26h-.2v-.21h.2v-.39h.26v.39h.4v.21h-.4v.91c0,.15.06.21.21.21h.19v.22h-.23c-.27,0-.43-.11-.43-.42v-.91Z"/>
        <path class="cls-3" d="m66.61,37.62c0-.1.08-.17.17-.17.09,0,.17.08.17.17s-.08.17-.17.17c-.1,0-.17-.08-.17-.17Zm.04.43h.26v1.55h-.26v-1.55Z"/>
        <path class="cls-3" d="m67.32,38.26h-.2v-.21h.2v-.39h.26v.39h.4v.21h-.4v.91c0,.15.06.21.21.21h.19v.22h-.23c-.27,0-.43-.11-.43-.42v-.91Z"/>
        <path class="cls-3" d="m69.58,39.59h-.26v-.23c-.1.16-.29.25-.49.25-.35,0-.63-.22-.63-.66v-.91h.25v.87c0,.31.17.47.43.47s.44-.16.44-.5v-.85h.26v1.55Z"/>
        <path class="cls-3" d="m70,38.26h-.2v-.21h.2v-.39h.26v.39h.4v.21h-.4v.91c0,.15.06.21.21.21h.19v.22h-.23c-.27,0-.43-.11-.43-.42v-.91Z"/>
        <path class="cls-3" d="m63.11,42.54h-.85l-.16.44h-.27l.71-1.95h.29l.7,1.95h-.27l-.16-.44Zm-.43-1.2l-.35.99h.71l-.35-.99Z"/>
        <path class="cls-3" d="m63.83,41.65h-.2v-.21h.2v-.11c0-.34.17-.5.56-.5v.21c-.23,0-.31.08-.31.28v.11h.32v.21h-.32v1.33h-.26v-1.33Z"/>
        <path class="cls-3" d="m64.89,42.98h-.26v-1.55h.26v.25c.09-.17.25-.28.5-.28v.27h-.07c-.24,0-.43.11-.43.47v.84Z"/>
        <path class="cls-3" d="m65.56,41.01c0-.1.08-.17.17-.17.09,0,.17.08.17.17s-.08.17-.17.17c-.1,0-.17-.08-.17-.17Zm.04.43h.26v1.55h-.26v-1.55Z"/>
        <path class="cls-3" d="m66.88,41.41c.38,0,.63.2.71.52h-.27c-.05-.19-.21-.3-.43-.3-.28,0-.49.2-.49.58s.21.58.49.58c.23,0,.38-.11.43-.3h.27c-.08.31-.33.52-.71.52-.44,0-.75-.31-.75-.8s.31-.8.75-.8Z"/>
        <path class="cls-3" d="m68.49,41.41c.29,0,.48.15.57.31v-.28h.26v1.55h-.26v-.29c-.09.17-.29.31-.57.31-.41,0-.73-.32-.73-.8s.32-.79.73-.79Zm.05.22c-.28,0-.52.21-.52.57s.24.58.52.58.52-.21.52-.58-.24-.57-.52-.57Z"/>
        <path class="cls-3" d="m69.64,41.01c0-.1.08-.17.17-.17.09,0,.17.08.17.17s-.08.17-.17.17c-.1,0-.17-.08-.17-.17Zm.04.43h.26v1.55h-.26v-1.55Z"/>
        <path class="cls-3" d="m71.43,42.11c0-.32-.17-.48-.43-.48s-.44.16-.44.5v.85h-.26v-1.55h.26v.22c.1-.16.29-.25.49-.25.36,0,.63.22.63.66v.91h-.25v-.87Z"/>
        <path class="cls-3" d="m73.35,41.41c.24,0,.46.12.57.3v-.82h.26v2.09h-.26v-.29c-.09.17-.29.32-.57.32-.41,0-.73-.32-.73-.8s.32-.79.73-.79Zm.05.22c-.28,0-.52.21-.52.57s.24.58.52.58.52-.21.52-.58-.24-.57-.52-.57Z"/>
        <path class="cls-3" d="m75.2,43.01c-.44,0-.76-.31-.76-.8s.31-.8.76-.8.74.32.74.74c0,.06,0,.1,0,.16h-1.23c.02.31.24.49.5.49.23,0,.38-.12.43-.28h.27c-.08.28-.33.5-.71.5Zm-.5-.91h.97c0-.3-.22-.47-.49-.47-.25,0-.46.17-.49.47Z"/>
        <path class="cls-3" d="m61.96,44.28h.26v2.09h-.26v-2.09Z"/>
        <path class="cls-3" d="m63.21,44.79c.29,0,.48.15.57.31v-.28h.26v1.55h-.26v-.29c-.09.17-.29.31-.57.31-.41,0-.73-.32-.73-.8s.32-.79.73-.79Zm.05.22c-.28,0-.52.21-.52.57s.24.58.52.58.52-.21.52-.58-.24-.57-.52-.57Z"/>
        <path class="cls-3" d="m66.87,44.97h-.31c-.11-.23-.32-.36-.59-.36-.41,0-.72.3-.72.77s.31.77.72.77c.38,0,.65-.25.69-.64h-.78v-.21h1.05v.2c-.04.49-.43.88-.96.88s-.98-.41-.98-1,.43-1,.98-1c.41,0,.75.21.9.59Z"/>
        <path class="cls-3" d="m67.86,46.39c-.43,0-.77-.31-.77-.8s.34-.8.78-.8.78.31.78.8-.35.8-.79.8Zm0-.23c.27,0,.53-.18.53-.58s-.26-.57-.52-.57-.51.18-.51.57.24.58.5.58Z"/>
        <path class="cls-3" d="m70.28,46.37h-.26v-.23c-.1.16-.29.25-.49.25-.35,0-.63-.22-.63-.66v-.91h.25v.87c0,.31.17.47.43.47s.44-.16.44-.5v-.85h.26v1.55Z"/>
        <path class="cls-3" d="m70.74,44.82l.48,1.31.48-1.31h.27l-.6,1.55h-.3l-.6-1.55h.27Z"/>
        <path class="cls-3" d="m72.81,46.39c-.44,0-.76-.31-.76-.8s.31-.8.76-.8.74.32.74.74c0,.06,0,.1,0,.16h-1.23c.02.31.24.49.5.49.23,0,.38-.12.43-.28h.27c-.08.28-.33.5-.71.5Zm-.5-.91h.97c0-.3-.22-.47-.49-.47-.25,0-.46.17-.49.47Z"/>
        <path class="cls-3" d="m74.07,46.37h-.26v-1.55h.26v.25c.09-.17.25-.28.5-.28v.27h-.07c-.24,0-.43.11-.43.47v.84Z"/>
        <path class="cls-3" d="m75.92,45.49c0-.32-.17-.48-.43-.48s-.44.16-.44.5v.85h-.26v-1.55h.26v.22c.1-.16.29-.25.49-.25.36,0,.63.22.63.66v.91h-.25v-.87Z"/>
        <path class="cls-3" d="m77.15,44.79c.29,0,.48.15.57.31v-.28h.26v1.55h-.26v-.29c-.09.17-.29.31-.57.31-.41,0-.73-.32-.73-.8s.32-.79.73-.79Zm.05.22c-.28,0-.52.21-.52.57s.24.58.52.58.52-.21.52-.58-.24-.57-.52-.57Z"/>
        <path class="cls-3" d="m79.47,45.49c0-.32-.17-.48-.43-.48s-.44.16-.44.5v.85h-.26v-1.55h.26v.22c.1-.16.29-.25.49-.25.36,0,.63.22.63.66v.91h-.25v-.87Z"/>
        <path class="cls-3" d="m80.73,44.79c.38,0,.63.2.71.52h-.27c-.05-.19-.21-.3-.43-.3-.28,0-.49.2-.49.58s.21.58.49.58c.23,0,.38-.11.43-.3h.27c-.08.31-.33.52-.71.52-.44,0-.75-.31-.75-.8s.31-.8.75-.8Z"/>
        <path class="cls-3" d="m82.37,46.39c-.44,0-.76-.31-.76-.8s.31-.8.76-.8.74.32.74.74c0,.06,0,.1,0,.16h-1.23c.02.31.24.49.5.49.23,0,.38-.12.43-.28h.27c-.08.28-.33.5-.71.5Zm-.5-.91h.97c0-.3-.22-.47-.49-.47-.25,0-.46.17-.49.47Z"/>
      </g>
    </g>
  </g>
</svg>